<svg
    width="23"
    height="23"
    viewBox="0 0 23 23"
    fill="none"
    xmlns="http://www.w3.org/2000/svg"
>
    <path
    d="M11.5508 0.0830078C5.50078 0.0830078 0.550781 5.03301 0.550781 11.083C0.550781 17.133 5.50078 22.083 11.5508 22.083C17.6008 22.083 22.5508 17.133 22.5508 11.083C22.5508 5.03301 17.6008 0.0830078 11.5508 0.0830078ZM10.6865 4.79729H12.4151V13.4402H10.6865V4.79729V4.79729ZM11.5508 18.1544C10.9222 18.1544 10.3722 17.6044 10.3722 16.9759C10.3722 16.3473 10.9222 15.7973 11.5508 15.7973C12.1794 15.7973 12.7294 16.3473 12.7294 16.9759C12.7294 17.6044 12.1794 18.1544 11.5508 18.1544Z"
    fill="#F0D232"
    />
</svg>