<svg width="267" height="272" viewBox="0 0 267 272" fill="none" xmlns="http://www.w3.org/2000/svg">
<path fill-rule="evenodd" clip-rule="evenodd" d="M266.431 124.889L226.542 164.778L205.153 143.389L212.931 135.611L226.542 149.222L258.653 117.111L266.431 124.889Z" fill="#A4D65E"/>
<path d="M64.6945 166.895C60.816 163.097 60.7502 156.875 64.5475 152.996V152.996C68.3448 149.118 74.5673 149.052 78.4458 152.849L108.213 181.993C112.091 185.791 112.157 192.013 108.36 195.892V195.892C104.562 199.77 98.34 199.836 94.4615 196.039L64.6945 166.895Z" fill="white"/>
<path d="M107.381 197.809C102.14 199.221 96.746 196.117 95.3338 190.876V190.876C93.9216 185.635 97.0254 180.242 102.266 178.829L130.957 171.098C136.198 169.686 141.592 172.79 143.004 178.031V178.031C144.416 183.272 141.312 188.665 136.071 190.078L107.381 197.809Z" fill="white"/>
<path d="M56.7693 143.885C62.7491 135.345 74.5198 133.269 83.0599 139.249V139.249C91.5999 145.229 93.6754 157 87.6956 165.54L41.7539 231.151C35.7741 239.691 24.0034 241.767 15.4633 235.787V235.787C6.9232 229.807 4.84771 218.036 10.8275 209.496L56.7693 143.885Z" fill="white"/>
<path d="M7.04199 225C7.04199 215.611 14.6532 208 24.042 208V208C33.4308 208 41.042 215.611 41.042 225V272H7.04199V225Z" fill="white"/>
<path d="M123.042 119.5C123.042 131.374 113.416 141 101.542 141C89.6679 141 80.042 131.374 80.042 119.5C80.042 107.626 89.6679 98 101.542 98C113.416 98 123.042 107.626 123.042 119.5Z" fill="white"/>
<path d="M137.042 180C137.042 178.895 137.937 178 139.042 178H173.042C174.147 178 175.042 178.895 175.042 180V181C175.042 182.105 174.147 183 173.042 183H139.042C137.937 183 137.042 182.105 137.042 181V180Z" fill="white"/>
<path fill-rule="evenodd" clip-rule="evenodd" d="M105.042 242C103.938 242 103.042 242.895 103.042 244V272H99.0422V244C99.0422 240.686 101.729 238 105.042 238H222.042C225.356 238 228.042 240.686 228.042 244V272H224.042V244C224.042 242.895 223.147 242 222.042 242H105.042Z" fill="white"/>
<path d="M142.042 230.5C142.042 229.119 143.162 228 144.542 228H189.542C190.923 228 192.042 229.119 192.042 230.5V230.5C192.042 231.881 190.923 233 189.542 233H144.542C143.162 233 142.042 231.881 142.042 230.5V230.5Z" fill="white"/>
<path opacity="0.5" d="M129.042 231L166.667 180L206.042 231H129.042Z" fill="url(#paint0_linear)"/>
<path d="M226.41 67.7042C227.09 67.7042 227.738 67.4186 228.196 66.9153C228.654 66.4166 228.881 65.7456 228.822 65.0654C228.223 58.2781 225.236 51.9219 220.389 47.1294C215.542 42.3416 209.149 39.4264 202.353 38.9141V2.41653C202.353 1.07908 201.274 0 199.937 0C198.599 0 197.52 1.07907 197.52 2.41653V38.9141C190.724 39.4264 184.331 42.3416 179.484 47.1294C174.637 51.9218 171.65 58.2783 171.051 65.0654C170.992 65.7455 171.219 66.4166 171.677 66.9153C172.135 67.4186 172.783 67.7042 173.463 67.7042H188.094H188.089C189.241 73.3308 194.192 77.375 199.936 77.375C205.681 77.375 210.632 73.3307 211.783 67.7042H226.41ZM199.936 43.5203C205.517 43.4931 210.931 45.4064 215.256 48.9384C219.577 52.4703 222.537 57.3941 223.621 62.8665H176.251C177.335 57.3941 180.295 52.4703 184.616 48.9384C188.941 45.4064 194.355 43.4931 199.936 43.5203V43.5203ZM199.936 72.5373C196.862 72.5327 194.123 70.5967 193.094 67.6996H206.777C205.748 70.5967 203.01 72.5327 199.936 72.5373Z" fill="white"/>
<path d="M199.936 87.0457C199.296 87.0457 198.68 87.2996 198.226 87.753C197.773 88.2063 197.519 88.823 197.519 89.4623V94.3C197.519 95.6374 198.598 96.7165 199.936 96.7165C201.273 96.7165 202.352 95.6374 202.352 94.3V89.4623C202.352 88.823 202.098 88.2064 201.645 87.753C201.191 87.2995 200.575 87.0457 199.935 87.0457H199.936Z" fill="white"/>
<path d="M227.421 78.9072L223.231 76.4906V76.4861C222.674 76.1687 222.016 76.0826 221.395 76.2458C220.774 76.4136 220.248 76.8171 219.926 77.3748C219.26 78.5309 219.654 80.0089 220.815 80.6755L225.004 83.092L225 83.0966C226.16 83.763 227.638 83.3686 228.305 82.2079C228.971 81.0518 228.577 79.5738 227.421 78.9072H227.421Z" fill="white"/>
<path d="M176.641 76.4857L172.452 78.9023V78.9068C171.296 79.5733 170.901 81.0514 171.568 82.2075C172.234 83.3682 173.712 83.7626 174.873 83.0962L179.062 80.6796L179.058 80.6751C180.218 80.0086 180.613 78.5305 179.946 77.3744C179.275 76.2182 177.797 75.8193 176.641 76.4903L176.641 76.4857Z" fill="white"/>
<path d="M213.588 83.6775C213.225 83.1425 212.658 82.7798 212.023 82.6619C211.389 82.544 210.731 82.6891 210.201 83.0609C209.67 83.4281 209.312 83.9948 209.203 84.6342C209.095 85.2734 209.249 85.9263 209.625 86.4522L212.4 90.4149C213.17 91.4894 214.667 91.7478 215.75 90.9862C216.838 90.229 217.11 88.7374 216.362 87.6402L213.588 83.6775Z" fill="white"/>
<path d="M186.284 83.6775L183.509 87.6401C183.133 88.1661 182.983 88.8189 183.092 89.4582C183.201 90.093 183.559 90.6598 184.089 91.0315C184.62 91.3988 185.273 91.5439 185.912 91.426C186.547 91.3126 187.109 90.9454 187.472 90.4149L190.247 86.4522C190.623 85.9263 190.777 85.2735 190.668 84.6342C190.559 83.9949 190.201 83.4281 189.671 83.0609C189.14 82.6891 188.483 82.544 187.848 82.6619C187.213 82.7798 186.647 83.1425 186.284 83.6775Z" fill="white"/>
<defs>
<linearGradient id="paint0_linear" x1="167.542" y1="180" x2="167.542" y2="231" gradientUnits="userSpaceOnUse">
<stop stop-color="white"/>
<stop offset="1" stop-color="white" stop-opacity="0"/>
</linearGradient>
</defs>
</svg>
