<svg 
    width="16" 
    height="18" 
    viewBox="0 0 16 18" 
    fill="none" 
    xmlns="http://www.w3.org/2000/svg"
>

    <path 
    d="M14.0833 15.9271L14.0833 7.30208L9.91667 7.30208L9.91667 2.51042L2.41667 2.51042L2.41667 15.9271L14.0833 15.9271ZM14.0833 17.8437L2.41667 17.8437C1.5 17.8437 0.75 16.9813 0.75 15.9271L0.749999 2.51042C0.749999 1.45625 1.5 0.593752 2.41667 0.593752L10.75 0.593751L15.75 6.34375L15.75 15.9271C15.75 16.9812 15 17.8437 14.0833 17.8437ZM8.25 7.30208L4.08333 7.30208L4.08333 9.21875L8.25 9.21875L8.25 7.30208ZM12.4167 11.1354L4.08333 11.1354L4.08333 13.0521L12.4167 13.0521L12.4167 11.1354Z" 
    fill="black"
    />
</svg>
