<svg
    width="23"
    height="23"
    viewBox="0 0 23 23"
    fill="none"
    xmlns="http://www.w3.org/2000/svg"
>
    <path
    fill-rule="evenodd"
    clip-rule="evenodd"
    d="M0.550781 11.4854C0.550781 5.43535 5.50078 0.485352 11.5508 0.485352C17.6008 0.485352 22.5508 5.43535 22.5508 11.4854C22.5508 17.5354 17.6008 22.4854 11.5508 22.4854C5.50078 22.4854 0.550781 17.5354 0.550781 11.4854ZM15.165 6.81059C15.5748 6.27025 16.3551 6.18664 16.8701 6.62789C17.3477 7.03712 17.4197 7.74939 17.0335 8.24585L10.5146 16.6264L6.13927 12.251C5.71267 11.8244 5.71267 11.1328 6.13927 10.7062C6.56576 10.2797 7.2572 10.2796 7.68384 10.7059L10.2588 13.279L15.165 6.81059Z"
    fill="#84BD00"
    fill-opacity="0.6"
    />
</svg>