<svg
    width="23"
    height="23"
    viewBox="0 0 23 23"
    fill="none"
    xmlns="http://www.w3.org/2000/svg"
>
    <path
    fill-rule="evenodd"
    clip-rule="evenodd"
    d="M0.551025 11.7559C0.551025 5.70586 5.50104 0.755859 11.551 0.755859C17.601 0.755859 22.551 5.70586 22.551 11.7559C22.551 17.8059 17.601 22.7559 11.551 22.7559C5.50104 22.7559 0.551025 17.8059 0.551025 11.7559ZM11.3478 10.344L8.73346 7.72993C7.72504 6.72108 6.16174 8.28455 7.16974 9.29227C7.6427 9.76509 8.11554 10.2379 8.58838 10.7108L9.78491 11.9073C8.9129 12.7789 8.04144 13.6504 7.16974 14.5221C6.16187 15.5303 7.72516 17.0939 8.73346 16.0859L11.348 13.4711C12.2194 14.3423 13.0911 15.2141 13.9626 16.0859C14.9708 17.0932 16.5338 15.5301 15.5264 14.5221C14.6545 13.651 13.783 12.7795 12.9119 11.9076C13.7826 11.0362 14.6546 10.164 15.5264 9.29311C16.5338 8.28455 14.9709 6.72108 13.9626 7.72936L12.8553 8.83665C12.3528 9.3392 11.8503 9.84175 11.3478 10.344Z"
    fill="#B1B4B6"
    fill-opacity="0.6"
    />
</svg>